<mxfile host="Electron" modified="2024-03-19T08:30:29.739Z" agent="Mozilla/5.0 (Windows NT 10.0; Win64; x64) AppleWebKit/537.36 (KHTML, like Gecko) draw.io/24.0.4 Chrome/120.0.6099.109 Electron/28.1.0 Safari/537.36" etag="PiLxlfBIe5V9O5k-9hol" version="24.0.4" type="device">
  <diagram id="C5RBs43oDa-KdzZeNtuy" name="Page-1">
    <mxGraphModel dx="991" dy="683" grid="1" gridSize="10" guides="1" tooltips="1" connect="1" arrows="1" fold="1" page="1" pageScale="1" pageWidth="1654" pageHeight="1169" math="0" shadow="0">
      <root>
        <mxCell id="WIyWlLk6GJQsqaUBKTNV-0" />
        <mxCell id="WIyWlLk6GJQsqaUBKTNV-1" parent="WIyWlLk6GJQsqaUBKTNV-0" />
        <mxCell id="j5i6vKfsUTGnZhMcb7lc-2" style="edgeStyle=orthogonalEdgeStyle;rounded=0;orthogonalLoop=1;jettySize=auto;html=1;exitX=1;exitY=0.5;exitDx=0;exitDy=0;entryX=0;entryY=0.5;entryDx=0;entryDy=0;" edge="1" parent="WIyWlLk6GJQsqaUBKTNV-1" source="j5i6vKfsUTGnZhMcb7lc-0" target="j5i6vKfsUTGnZhMcb7lc-1">
          <mxGeometry relative="1" as="geometry" />
        </mxCell>
        <mxCell id="j5i6vKfsUTGnZhMcb7lc-3" value="models" style="edgeLabel;html=1;align=center;verticalAlign=middle;resizable=0;points=[];" vertex="1" connectable="0" parent="j5i6vKfsUTGnZhMcb7lc-2">
          <mxGeometry x="0.02" y="-1" relative="1" as="geometry">
            <mxPoint as="offset" />
          </mxGeometry>
        </mxCell>
        <mxCell id="j5i6vKfsUTGnZhMcb7lc-0" value="&lt;font style=&quot;font-size: 18px;&quot;&gt;OOP&lt;/font&gt;" style="rhombus;whiteSpace=wrap;html=1;fillColor=#ffe6cc;strokeColor=#d79b00;" vertex="1" parent="WIyWlLk6GJQsqaUBKTNV-1">
          <mxGeometry x="480" y="60" width="80" height="80" as="geometry" />
        </mxCell>
        <mxCell id="j5i6vKfsUTGnZhMcb7lc-5" value="" style="edgeStyle=orthogonalEdgeStyle;rounded=0;orthogonalLoop=1;jettySize=auto;html=1;" edge="1" parent="WIyWlLk6GJQsqaUBKTNV-1" source="j5i6vKfsUTGnZhMcb7lc-1" target="j5i6vKfsUTGnZhMcb7lc-4">
          <mxGeometry relative="1" as="geometry" />
        </mxCell>
        <mxCell id="j5i6vKfsUTGnZhMcb7lc-6" value="" style="edgeStyle=orthogonalEdgeStyle;rounded=0;orthogonalLoop=1;jettySize=auto;html=1;" edge="1" parent="WIyWlLk6GJQsqaUBKTNV-1" source="j5i6vKfsUTGnZhMcb7lc-1" target="j5i6vKfsUTGnZhMcb7lc-4">
          <mxGeometry relative="1" as="geometry" />
        </mxCell>
        <mxCell id="j5i6vKfsUTGnZhMcb7lc-7" value="created by" style="edgeLabel;html=1;align=center;verticalAlign=middle;resizable=0;points=[];" vertex="1" connectable="0" parent="j5i6vKfsUTGnZhMcb7lc-6">
          <mxGeometry x="0.0286" y="2" relative="1" as="geometry">
            <mxPoint as="offset" />
          </mxGeometry>
        </mxCell>
        <mxCell id="j5i6vKfsUTGnZhMcb7lc-9" value="" style="edgeStyle=orthogonalEdgeStyle;rounded=0;orthogonalLoop=1;jettySize=auto;html=1;" edge="1" parent="WIyWlLk6GJQsqaUBKTNV-1" source="j5i6vKfsUTGnZhMcb7lc-1" target="j5i6vKfsUTGnZhMcb7lc-8">
          <mxGeometry relative="1" as="geometry" />
        </mxCell>
        <mxCell id="j5i6vKfsUTGnZhMcb7lc-10" value="Instances of" style="edgeLabel;html=1;align=center;verticalAlign=middle;resizable=0;points=[];" vertex="1" connectable="0" parent="j5i6vKfsUTGnZhMcb7lc-9">
          <mxGeometry y="2" relative="1" as="geometry">
            <mxPoint as="offset" />
          </mxGeometry>
        </mxCell>
        <mxCell id="j5i6vKfsUTGnZhMcb7lc-1" value="&lt;font style=&quot;font-size: 18px;&quot;&gt;Objects&lt;/font&gt;" style="rounded=1;whiteSpace=wrap;html=1;" vertex="1" parent="WIyWlLk6GJQsqaUBKTNV-1">
          <mxGeometry x="660" y="70" width="120" height="60" as="geometry" />
        </mxCell>
        <mxCell id="j5i6vKfsUTGnZhMcb7lc-4" value="&lt;font style=&quot;font-size: 14px;&quot;&gt;New&lt;/font&gt;" style="rounded=0;whiteSpace=wrap;html=1;" vertex="1" parent="WIyWlLk6GJQsqaUBKTNV-1">
          <mxGeometry x="890" y="85" width="70" height="30" as="geometry" />
        </mxCell>
        <mxCell id="j5i6vKfsUTGnZhMcb7lc-12" value="" style="edgeStyle=orthogonalEdgeStyle;rounded=0;orthogonalLoop=1;jettySize=auto;html=1;" edge="1" parent="WIyWlLk6GJQsqaUBKTNV-1" source="j5i6vKfsUTGnZhMcb7lc-8" target="j5i6vKfsUTGnZhMcb7lc-11">
          <mxGeometry relative="1" as="geometry" />
        </mxCell>
        <mxCell id="j5i6vKfsUTGnZhMcb7lc-14" style="edgeStyle=orthogonalEdgeStyle;rounded=0;orthogonalLoop=1;jettySize=auto;html=1;exitX=0;exitY=0.5;exitDx=0;exitDy=0;" edge="1" parent="WIyWlLk6GJQsqaUBKTNV-1" source="j5i6vKfsUTGnZhMcb7lc-8" target="j5i6vKfsUTGnZhMcb7lc-13">
          <mxGeometry relative="1" as="geometry" />
        </mxCell>
        <mxCell id="j5i6vKfsUTGnZhMcb7lc-61" value="&lt;font style=&quot;font-size: 18px;&quot;&gt;use&lt;/font&gt;" style="edgeLabel;html=1;align=center;verticalAlign=middle;resizable=0;points=[];" vertex="1" connectable="0" parent="j5i6vKfsUTGnZhMcb7lc-14">
          <mxGeometry x="-0.2771" relative="1" as="geometry">
            <mxPoint as="offset" />
          </mxGeometry>
        </mxCell>
        <mxCell id="j5i6vKfsUTGnZhMcb7lc-41" style="edgeStyle=orthogonalEdgeStyle;rounded=0;orthogonalLoop=1;jettySize=auto;html=1;exitX=0.5;exitY=1;exitDx=0;exitDy=0;" edge="1" parent="WIyWlLk6GJQsqaUBKTNV-1" source="j5i6vKfsUTGnZhMcb7lc-8">
          <mxGeometry relative="1" as="geometry">
            <mxPoint x="720" y="330" as="targetPoint" />
          </mxGeometry>
        </mxCell>
        <mxCell id="j5i6vKfsUTGnZhMcb7lc-62" value="use" style="edgeLabel;html=1;align=center;verticalAlign=middle;resizable=0;points=[];" vertex="1" connectable="0" parent="j5i6vKfsUTGnZhMcb7lc-41">
          <mxGeometry x="-0.5178" y="-4" relative="1" as="geometry">
            <mxPoint as="offset" />
          </mxGeometry>
        </mxCell>
        <mxCell id="j5i6vKfsUTGnZhMcb7lc-63" value="&lt;font style=&quot;font-size: 15px;&quot;&gt;use&lt;/font&gt;" style="edgeLabel;html=1;align=center;verticalAlign=middle;resizable=0;points=[];" vertex="1" connectable="0" parent="j5i6vKfsUTGnZhMcb7lc-41">
          <mxGeometry x="-0.4282" y="-4" relative="1" as="geometry">
            <mxPoint as="offset" />
          </mxGeometry>
        </mxCell>
        <mxCell id="j5i6vKfsUTGnZhMcb7lc-65" style="edgeStyle=orthogonalEdgeStyle;rounded=0;orthogonalLoop=1;jettySize=auto;html=1;exitX=1;exitY=0.5;exitDx=0;exitDy=0;" edge="1" parent="WIyWlLk6GJQsqaUBKTNV-1" source="j5i6vKfsUTGnZhMcb7lc-8" target="j5i6vKfsUTGnZhMcb7lc-64">
          <mxGeometry relative="1" as="geometry" />
        </mxCell>
        <mxCell id="j5i6vKfsUTGnZhMcb7lc-8" value="&lt;font style=&quot;font-size: 14px;&quot;&gt;Classes&lt;/font&gt;" style="rhombus;whiteSpace=wrap;html=1;" vertex="1" parent="WIyWlLk6GJQsqaUBKTNV-1">
          <mxGeometry x="680" y="180" width="80" height="80" as="geometry" />
        </mxCell>
        <mxCell id="j5i6vKfsUTGnZhMcb7lc-83" style="edgeStyle=orthogonalEdgeStyle;rounded=0;orthogonalLoop=1;jettySize=auto;html=1;exitX=0.5;exitY=0;exitDx=0;exitDy=0;entryX=1;entryY=0.5;entryDx=0;entryDy=0;" edge="1" parent="WIyWlLk6GJQsqaUBKTNV-1" source="j5i6vKfsUTGnZhMcb7lc-11" target="j5i6vKfsUTGnZhMcb7lc-81">
          <mxGeometry relative="1" as="geometry" />
        </mxCell>
        <mxCell id="j5i6vKfsUTGnZhMcb7lc-85" value="Loose" style="edgeLabel;html=1;align=center;verticalAlign=middle;resizable=0;points=[];" vertex="1" connectable="0" parent="j5i6vKfsUTGnZhMcb7lc-83">
          <mxGeometry x="0.1845" y="-2" relative="1" as="geometry">
            <mxPoint as="offset" />
          </mxGeometry>
        </mxCell>
        <mxCell id="j5i6vKfsUTGnZhMcb7lc-88" style="edgeStyle=orthogonalEdgeStyle;rounded=0;orthogonalLoop=1;jettySize=auto;html=1;exitX=1;exitY=0.5;exitDx=0;exitDy=0;" edge="1" parent="WIyWlLk6GJQsqaUBKTNV-1" source="j5i6vKfsUTGnZhMcb7lc-11" target="j5i6vKfsUTGnZhMcb7lc-86">
          <mxGeometry relative="1" as="geometry" />
        </mxCell>
        <mxCell id="j5i6vKfsUTGnZhMcb7lc-11" value="&lt;font style=&quot;font-size: 18px;&quot;&gt;Interfaces&lt;/font&gt;" style="rounded=1;whiteSpace=wrap;html=1;" vertex="1" parent="WIyWlLk6GJQsqaUBKTNV-1">
          <mxGeometry x="1320" y="190" width="120" height="60" as="geometry" />
        </mxCell>
        <mxCell id="j5i6vKfsUTGnZhMcb7lc-16" value="" style="edgeStyle=orthogonalEdgeStyle;rounded=0;orthogonalLoop=1;jettySize=auto;html=1;" edge="1" parent="WIyWlLk6GJQsqaUBKTNV-1" source="j5i6vKfsUTGnZhMcb7lc-13" target="j5i6vKfsUTGnZhMcb7lc-15">
          <mxGeometry relative="1" as="geometry" />
        </mxCell>
        <mxCell id="j5i6vKfsUTGnZhMcb7lc-13" value="&lt;font style=&quot;font-size: 14px;&quot;&gt;Encapsualtion&lt;/font&gt;" style="rounded=0;whiteSpace=wrap;html=1;fillColor=#d5e8d4;strokeColor=#82b366;" vertex="1" parent="WIyWlLk6GJQsqaUBKTNV-1">
          <mxGeometry x="200" y="330" width="120" height="60" as="geometry" />
        </mxCell>
        <mxCell id="j5i6vKfsUTGnZhMcb7lc-19" style="edgeStyle=orthogonalEdgeStyle;rounded=0;orthogonalLoop=1;jettySize=auto;html=1;" edge="1" parent="WIyWlLk6GJQsqaUBKTNV-1" source="j5i6vKfsUTGnZhMcb7lc-15">
          <mxGeometry relative="1" as="geometry">
            <mxPoint x="150" y="440" as="targetPoint" />
          </mxGeometry>
        </mxCell>
        <mxCell id="j5i6vKfsUTGnZhMcb7lc-21" style="edgeStyle=orthogonalEdgeStyle;rounded=0;orthogonalLoop=1;jettySize=auto;html=1;exitX=0;exitY=0.5;exitDx=0;exitDy=0;entryX=1;entryY=0.5;entryDx=0;entryDy=0;" edge="1" parent="WIyWlLk6GJQsqaUBKTNV-1" source="j5i6vKfsUTGnZhMcb7lc-15" target="j5i6vKfsUTGnZhMcb7lc-18">
          <mxGeometry relative="1" as="geometry" />
        </mxCell>
        <mxCell id="j5i6vKfsUTGnZhMcb7lc-22" value="can be" style="edgeLabel;html=1;align=center;verticalAlign=middle;resizable=0;points=[];" vertex="1" connectable="0" parent="j5i6vKfsUTGnZhMcb7lc-21">
          <mxGeometry x="-0.3139" y="-2" relative="1" as="geometry">
            <mxPoint as="offset" />
          </mxGeometry>
        </mxCell>
        <mxCell id="j5i6vKfsUTGnZhMcb7lc-24" value="" style="edgeStyle=orthogonalEdgeStyle;rounded=0;orthogonalLoop=1;jettySize=auto;html=1;" edge="1" parent="WIyWlLk6GJQsqaUBKTNV-1" source="j5i6vKfsUTGnZhMcb7lc-15" target="j5i6vKfsUTGnZhMcb7lc-23">
          <mxGeometry relative="1" as="geometry" />
        </mxCell>
        <mxCell id="j5i6vKfsUTGnZhMcb7lc-15" value="&lt;font style=&quot;font-size: 14px;&quot;&gt;Fields&lt;/font&gt;" style="rounded=0;whiteSpace=wrap;html=1;" vertex="1" parent="WIyWlLk6GJQsqaUBKTNV-1">
          <mxGeometry x="200" y="440" width="120" height="60" as="geometry" />
        </mxCell>
        <mxCell id="j5i6vKfsUTGnZhMcb7lc-17" value="Value Type" style="rounded=1;whiteSpace=wrap;html=1;" vertex="1" parent="WIyWlLk6GJQsqaUBKTNV-1">
          <mxGeometry x="50" y="420" width="100" height="40" as="geometry" />
        </mxCell>
        <mxCell id="j5i6vKfsUTGnZhMcb7lc-18" value="Reference Type" style="rounded=1;whiteSpace=wrap;html=1;" vertex="1" parent="WIyWlLk6GJQsqaUBKTNV-1">
          <mxGeometry x="50" y="510" width="100" height="40" as="geometry" />
        </mxCell>
        <mxCell id="j5i6vKfsUTGnZhMcb7lc-26" style="edgeStyle=orthogonalEdgeStyle;rounded=0;orthogonalLoop=1;jettySize=auto;html=1;exitX=0;exitY=0.5;exitDx=0;exitDy=0;entryX=0.5;entryY=0;entryDx=0;entryDy=0;" edge="1" parent="WIyWlLk6GJQsqaUBKTNV-1" source="j5i6vKfsUTGnZhMcb7lc-23" target="j5i6vKfsUTGnZhMcb7lc-25">
          <mxGeometry relative="1" as="geometry" />
        </mxCell>
        <mxCell id="j5i6vKfsUTGnZhMcb7lc-31" value="can be" style="edgeLabel;html=1;align=center;verticalAlign=middle;resizable=0;points=[];" vertex="1" connectable="0" parent="j5i6vKfsUTGnZhMcb7lc-26">
          <mxGeometry x="0.5033" relative="1" as="geometry">
            <mxPoint as="offset" />
          </mxGeometry>
        </mxCell>
        <mxCell id="j5i6vKfsUTGnZhMcb7lc-29" style="edgeStyle=orthogonalEdgeStyle;rounded=0;orthogonalLoop=1;jettySize=auto;html=1;exitX=1;exitY=0.5;exitDx=0;exitDy=0;entryX=0.5;entryY=0;entryDx=0;entryDy=0;" edge="1" parent="WIyWlLk6GJQsqaUBKTNV-1" source="j5i6vKfsUTGnZhMcb7lc-23" target="j5i6vKfsUTGnZhMcb7lc-28">
          <mxGeometry relative="1" as="geometry" />
        </mxCell>
        <mxCell id="j5i6vKfsUTGnZhMcb7lc-32" value="can be" style="edgeLabel;html=1;align=center;verticalAlign=middle;resizable=0;points=[];" vertex="1" connectable="0" parent="j5i6vKfsUTGnZhMcb7lc-29">
          <mxGeometry x="0.4799" y="-3" relative="1" as="geometry">
            <mxPoint as="offset" />
          </mxGeometry>
        </mxCell>
        <mxCell id="j5i6vKfsUTGnZhMcb7lc-30" style="edgeStyle=orthogonalEdgeStyle;rounded=0;orthogonalLoop=1;jettySize=auto;html=1;exitX=0.5;exitY=1;exitDx=0;exitDy=0;entryX=0.5;entryY=0;entryDx=0;entryDy=0;" edge="1" parent="WIyWlLk6GJQsqaUBKTNV-1" source="j5i6vKfsUTGnZhMcb7lc-23" target="j5i6vKfsUTGnZhMcb7lc-27">
          <mxGeometry relative="1" as="geometry" />
        </mxCell>
        <mxCell id="j5i6vKfsUTGnZhMcb7lc-33" value="can be" style="edgeLabel;html=1;align=center;verticalAlign=middle;resizable=0;points=[];" vertex="1" connectable="0" parent="j5i6vKfsUTGnZhMcb7lc-30">
          <mxGeometry x="-0.4684" y="3" relative="1" as="geometry">
            <mxPoint as="offset" />
          </mxGeometry>
        </mxCell>
        <mxCell id="j5i6vKfsUTGnZhMcb7lc-23" value="&lt;font style=&quot;font-size: 14px;&quot;&gt;Properties&lt;/font&gt;" style="rhombus;whiteSpace=wrap;html=1;" vertex="1" parent="WIyWlLk6GJQsqaUBKTNV-1">
          <mxGeometry x="197.5" y="550" width="125" height="80" as="geometry" />
        </mxCell>
        <mxCell id="j5i6vKfsUTGnZhMcb7lc-25" value="&lt;font style=&quot;font-size: 14px;&quot;&gt;Public&lt;/font&gt;" style="rounded=1;whiteSpace=wrap;html=1;" vertex="1" parent="WIyWlLk6GJQsqaUBKTNV-1">
          <mxGeometry x="50" y="690" width="100" height="50" as="geometry" />
        </mxCell>
        <mxCell id="j5i6vKfsUTGnZhMcb7lc-27" value="&lt;font style=&quot;font-size: 14px;&quot;&gt;Protected&lt;/font&gt;" style="rounded=1;whiteSpace=wrap;html=1;" vertex="1" parent="WIyWlLk6GJQsqaUBKTNV-1">
          <mxGeometry x="210" y="690" width="100" height="50" as="geometry" />
        </mxCell>
        <mxCell id="j5i6vKfsUTGnZhMcb7lc-28" value="&lt;font style=&quot;font-size: 14px;&quot;&gt;Private&lt;/font&gt;" style="rounded=1;whiteSpace=wrap;html=1;" vertex="1" parent="WIyWlLk6GJQsqaUBKTNV-1">
          <mxGeometry x="370" y="690" width="100" height="50" as="geometry" />
        </mxCell>
        <mxCell id="j5i6vKfsUTGnZhMcb7lc-35" style="edgeStyle=orthogonalEdgeStyle;rounded=0;orthogonalLoop=1;jettySize=auto;html=1;exitX=0;exitY=0.5;exitDx=0;exitDy=0;entryX=0.5;entryY=1;entryDx=0;entryDy=0;" edge="1" parent="WIyWlLk6GJQsqaUBKTNV-1" source="j5i6vKfsUTGnZhMcb7lc-34" target="j5i6vKfsUTGnZhMcb7lc-25">
          <mxGeometry relative="1" as="geometry" />
        </mxCell>
        <mxCell id="j5i6vKfsUTGnZhMcb7lc-38" value="can be" style="edgeLabel;html=1;align=center;verticalAlign=middle;resizable=0;points=[];" vertex="1" connectable="0" parent="j5i6vKfsUTGnZhMcb7lc-35">
          <mxGeometry x="0.5822" y="2" relative="1" as="geometry">
            <mxPoint as="offset" />
          </mxGeometry>
        </mxCell>
        <mxCell id="j5i6vKfsUTGnZhMcb7lc-36" style="edgeStyle=orthogonalEdgeStyle;rounded=0;orthogonalLoop=1;jettySize=auto;html=1;exitX=0.5;exitY=0;exitDx=0;exitDy=0;entryX=0.5;entryY=1;entryDx=0;entryDy=0;" edge="1" parent="WIyWlLk6GJQsqaUBKTNV-1" source="j5i6vKfsUTGnZhMcb7lc-34" target="j5i6vKfsUTGnZhMcb7lc-27">
          <mxGeometry relative="1" as="geometry" />
        </mxCell>
        <mxCell id="j5i6vKfsUTGnZhMcb7lc-39" value="can be" style="edgeLabel;html=1;align=center;verticalAlign=middle;resizable=0;points=[];" vertex="1" connectable="0" parent="j5i6vKfsUTGnZhMcb7lc-36">
          <mxGeometry x="-0.1323" y="2" relative="1" as="geometry">
            <mxPoint as="offset" />
          </mxGeometry>
        </mxCell>
        <mxCell id="j5i6vKfsUTGnZhMcb7lc-37" style="edgeStyle=orthogonalEdgeStyle;rounded=0;orthogonalLoop=1;jettySize=auto;html=1;exitX=1;exitY=0.5;exitDx=0;exitDy=0;entryX=0.5;entryY=1;entryDx=0;entryDy=0;" edge="1" parent="WIyWlLk6GJQsqaUBKTNV-1" source="j5i6vKfsUTGnZhMcb7lc-34" target="j5i6vKfsUTGnZhMcb7lc-28">
          <mxGeometry relative="1" as="geometry" />
        </mxCell>
        <mxCell id="j5i6vKfsUTGnZhMcb7lc-40" value="can be" style="edgeLabel;html=1;align=center;verticalAlign=middle;resizable=0;points=[];" vertex="1" connectable="0" parent="j5i6vKfsUTGnZhMcb7lc-37">
          <mxGeometry x="0.6098" y="-2" relative="1" as="geometry">
            <mxPoint as="offset" />
          </mxGeometry>
        </mxCell>
        <mxCell id="j5i6vKfsUTGnZhMcb7lc-34" value="&lt;font style=&quot;font-size: 14px;&quot;&gt;Methods&lt;/font&gt;" style="rhombus;whiteSpace=wrap;html=1;" vertex="1" parent="WIyWlLk6GJQsqaUBKTNV-1">
          <mxGeometry x="190" y="810" width="140" height="80" as="geometry" />
        </mxCell>
        <mxCell id="j5i6vKfsUTGnZhMcb7lc-43" style="edgeStyle=orthogonalEdgeStyle;rounded=0;orthogonalLoop=1;jettySize=auto;html=1;exitX=0;exitY=0.5;exitDx=0;exitDy=0;fontSize=18;" edge="1" parent="WIyWlLk6GJQsqaUBKTNV-1" source="j5i6vKfsUTGnZhMcb7lc-42" target="j5i6vKfsUTGnZhMcb7lc-13">
          <mxGeometry relative="1" as="geometry" />
        </mxCell>
        <mxCell id="j5i6vKfsUTGnZhMcb7lc-44" value="use&lt;div&gt;&lt;br&gt;&lt;/div&gt;" style="edgeLabel;html=1;align=center;verticalAlign=middle;resizable=0;points=[];" vertex="1" connectable="0" parent="j5i6vKfsUTGnZhMcb7lc-43">
          <mxGeometry x="0.0337" y="4" relative="1" as="geometry">
            <mxPoint as="offset" />
          </mxGeometry>
        </mxCell>
        <mxCell id="j5i6vKfsUTGnZhMcb7lc-45" value="&lt;font style=&quot;font-size: 18px;&quot;&gt;use&lt;/font&gt;" style="edgeLabel;html=1;align=center;verticalAlign=middle;resizable=0;points=[];" vertex="1" connectable="0" parent="j5i6vKfsUTGnZhMcb7lc-43">
          <mxGeometry x="0.009" y="-4" relative="1" as="geometry">
            <mxPoint as="offset" />
          </mxGeometry>
        </mxCell>
        <mxCell id="j5i6vKfsUTGnZhMcb7lc-47" style="edgeStyle=orthogonalEdgeStyle;rounded=0;orthogonalLoop=1;jettySize=auto;html=1;exitX=0.5;exitY=1;exitDx=0;exitDy=0;" edge="1" parent="WIyWlLk6GJQsqaUBKTNV-1" source="j5i6vKfsUTGnZhMcb7lc-42" target="j5i6vKfsUTGnZhMcb7lc-46">
          <mxGeometry relative="1" as="geometry" />
        </mxCell>
        <mxCell id="j5i6vKfsUTGnZhMcb7lc-49" style="edgeStyle=orthogonalEdgeStyle;rounded=0;orthogonalLoop=1;jettySize=auto;html=1;exitX=0.5;exitY=1;exitDx=0;exitDy=0;entryX=0.5;entryY=0;entryDx=0;entryDy=0;" edge="1" parent="WIyWlLk6GJQsqaUBKTNV-1" source="j5i6vKfsUTGnZhMcb7lc-42" target="j5i6vKfsUTGnZhMcb7lc-48">
          <mxGeometry relative="1" as="geometry" />
        </mxCell>
        <mxCell id="j5i6vKfsUTGnZhMcb7lc-50" value="have" style="edgeLabel;html=1;align=center;verticalAlign=middle;resizable=0;points=[];" vertex="1" connectable="0" parent="j5i6vKfsUTGnZhMcb7lc-49">
          <mxGeometry x="-0.8091" y="-1" relative="1" as="geometry">
            <mxPoint as="offset" />
          </mxGeometry>
        </mxCell>
        <mxCell id="j5i6vKfsUTGnZhMcb7lc-42" value="&lt;font style=&quot;font-size: 14px;&quot;&gt;Abstraction&lt;/font&gt;" style="rounded=0;whiteSpace=wrap;html=1;fillColor=#d5e8d4;strokeColor=#82b366;" vertex="1" parent="WIyWlLk6GJQsqaUBKTNV-1">
          <mxGeometry x="660" y="330" width="120" height="60" as="geometry" />
        </mxCell>
        <mxCell id="j5i6vKfsUTGnZhMcb7lc-51" style="edgeStyle=orthogonalEdgeStyle;rounded=0;orthogonalLoop=1;jettySize=auto;html=1;exitX=0.5;exitY=1;exitDx=0;exitDy=0;entryX=0.5;entryY=1;entryDx=0;entryDy=0;" edge="1" parent="WIyWlLk6GJQsqaUBKTNV-1" source="j5i6vKfsUTGnZhMcb7lc-46" target="j5i6vKfsUTGnZhMcb7lc-34">
          <mxGeometry relative="1" as="geometry">
            <mxPoint x="606.8947368421054" y="940" as="targetPoint" />
          </mxGeometry>
        </mxCell>
        <mxCell id="j5i6vKfsUTGnZhMcb7lc-55" style="edgeStyle=orthogonalEdgeStyle;rounded=0;orthogonalLoop=1;jettySize=auto;html=1;exitX=0.5;exitY=1;exitDx=0;exitDy=0;" edge="1" parent="WIyWlLk6GJQsqaUBKTNV-1" source="j5i6vKfsUTGnZhMcb7lc-46" target="j5i6vKfsUTGnZhMcb7lc-54">
          <mxGeometry relative="1" as="geometry" />
        </mxCell>
        <mxCell id="j5i6vKfsUTGnZhMcb7lc-46" value="&lt;font style=&quot;font-size: 14px;&quot;&gt;Roles&lt;/font&gt;" style="rounded=1;whiteSpace=wrap;html=1;" vertex="1" parent="WIyWlLk6GJQsqaUBKTNV-1">
          <mxGeometry x="556.5" y="480" width="100" height="40" as="geometry" />
        </mxCell>
        <mxCell id="j5i6vKfsUTGnZhMcb7lc-52" style="edgeStyle=orthogonalEdgeStyle;rounded=0;orthogonalLoop=1;jettySize=auto;html=1;exitX=0.5;exitY=1;exitDx=0;exitDy=0;entryX=0.5;entryY=1;entryDx=0;entryDy=0;" edge="1" parent="WIyWlLk6GJQsqaUBKTNV-1" source="j5i6vKfsUTGnZhMcb7lc-48" target="j5i6vKfsUTGnZhMcb7lc-34">
          <mxGeometry relative="1" as="geometry" />
        </mxCell>
        <mxCell id="j5i6vKfsUTGnZhMcb7lc-53" value="&lt;font style=&quot;font-size: 18px;&quot;&gt;defined in&lt;/font&gt;" style="edgeLabel;html=1;align=center;verticalAlign=middle;resizable=0;points=[];" vertex="1" connectable="0" parent="j5i6vKfsUTGnZhMcb7lc-52">
          <mxGeometry x="0.376" y="4" relative="1" as="geometry">
            <mxPoint as="offset" />
          </mxGeometry>
        </mxCell>
        <mxCell id="j5i6vKfsUTGnZhMcb7lc-56" style="edgeStyle=orthogonalEdgeStyle;rounded=0;orthogonalLoop=1;jettySize=auto;html=1;exitX=0.5;exitY=1;exitDx=0;exitDy=0;entryX=0.5;entryY=0;entryDx=0;entryDy=0;" edge="1" parent="WIyWlLk6GJQsqaUBKTNV-1" source="j5i6vKfsUTGnZhMcb7lc-48" target="j5i6vKfsUTGnZhMcb7lc-54">
          <mxGeometry relative="1" as="geometry" />
        </mxCell>
        <mxCell id="j5i6vKfsUTGnZhMcb7lc-57" value="used for" style="edgeLabel;html=1;align=center;verticalAlign=middle;resizable=0;points=[];" vertex="1" connectable="0" parent="j5i6vKfsUTGnZhMcb7lc-56">
          <mxGeometry x="0.629" y="1" relative="1" as="geometry">
            <mxPoint as="offset" />
          </mxGeometry>
        </mxCell>
        <mxCell id="j5i6vKfsUTGnZhMcb7lc-48" value="&lt;font style=&quot;font-size: 14px;&quot;&gt;Responsibilities&lt;/font&gt;" style="rounded=1;whiteSpace=wrap;html=1;" vertex="1" parent="WIyWlLk6GJQsqaUBKTNV-1">
          <mxGeometry x="760" y="480" width="123.5" height="40" as="geometry" />
        </mxCell>
        <mxCell id="j5i6vKfsUTGnZhMcb7lc-59" value="" style="edgeStyle=orthogonalEdgeStyle;rounded=0;orthogonalLoop=1;jettySize=auto;html=1;" edge="1" parent="WIyWlLk6GJQsqaUBKTNV-1" source="j5i6vKfsUTGnZhMcb7lc-54" target="j5i6vKfsUTGnZhMcb7lc-58">
          <mxGeometry relative="1" as="geometry" />
        </mxCell>
        <mxCell id="j5i6vKfsUTGnZhMcb7lc-60" value="&lt;font style=&quot;font-size: 13px;&quot;&gt;increases&lt;/font&gt;" style="edgeLabel;html=1;align=center;verticalAlign=middle;resizable=0;points=[];" vertex="1" connectable="0" parent="j5i6vKfsUTGnZhMcb7lc-59">
          <mxGeometry x="-0.3281" y="1" relative="1" as="geometry">
            <mxPoint as="offset" />
          </mxGeometry>
        </mxCell>
        <mxCell id="j5i6vKfsUTGnZhMcb7lc-54" value="&lt;font style=&quot;font-size: 14px;&quot;&gt;Collaborations&lt;/font&gt;" style="rounded=1;whiteSpace=wrap;html=1;" vertex="1" parent="WIyWlLk6GJQsqaUBKTNV-1">
          <mxGeometry x="660" y="650" width="120" height="60" as="geometry" />
        </mxCell>
        <mxCell id="j5i6vKfsUTGnZhMcb7lc-58" value="&lt;font style=&quot;font-size: 14px;&quot;&gt;Cohesion&lt;/font&gt;" style="rhombus;whiteSpace=wrap;html=1;" vertex="1" parent="WIyWlLk6GJQsqaUBKTNV-1">
          <mxGeometry x="660" y="780" width="120" height="80" as="geometry" />
        </mxCell>
        <mxCell id="j5i6vKfsUTGnZhMcb7lc-67" value="" style="edgeStyle=orthogonalEdgeStyle;rounded=0;orthogonalLoop=1;jettySize=auto;html=1;" edge="1" parent="WIyWlLk6GJQsqaUBKTNV-1" source="j5i6vKfsUTGnZhMcb7lc-64" target="j5i6vKfsUTGnZhMcb7lc-66">
          <mxGeometry relative="1" as="geometry" />
        </mxCell>
        <mxCell id="j5i6vKfsUTGnZhMcb7lc-68" value="involve" style="edgeLabel;html=1;align=center;verticalAlign=middle;resizable=0;points=[];" vertex="1" connectable="0" parent="j5i6vKfsUTGnZhMcb7lc-67">
          <mxGeometry x="-0.0674" y="-2" relative="1" as="geometry">
            <mxPoint as="offset" />
          </mxGeometry>
        </mxCell>
        <mxCell id="j5i6vKfsUTGnZhMcb7lc-82" style="edgeStyle=orthogonalEdgeStyle;rounded=0;orthogonalLoop=1;jettySize=auto;html=1;exitX=0;exitY=0.5;exitDx=0;exitDy=0;entryX=0;entryY=1;entryDx=0;entryDy=0;" edge="1" parent="WIyWlLk6GJQsqaUBKTNV-1" source="j5i6vKfsUTGnZhMcb7lc-64" target="j5i6vKfsUTGnZhMcb7lc-81">
          <mxGeometry relative="1" as="geometry" />
        </mxCell>
        <mxCell id="j5i6vKfsUTGnZhMcb7lc-84" value="Enhances" style="edgeLabel;html=1;align=center;verticalAlign=middle;resizable=0;points=[];" vertex="1" connectable="0" parent="j5i6vKfsUTGnZhMcb7lc-82">
          <mxGeometry x="0.0492" relative="1" as="geometry">
            <mxPoint as="offset" />
          </mxGeometry>
        </mxCell>
        <mxCell id="j5i6vKfsUTGnZhMcb7lc-87" style="edgeStyle=orthogonalEdgeStyle;rounded=0;orthogonalLoop=1;jettySize=auto;html=1;entryX=0;entryY=0.5;entryDx=0;entryDy=0;" edge="1" parent="WIyWlLk6GJQsqaUBKTNV-1" source="j5i6vKfsUTGnZhMcb7lc-64" target="j5i6vKfsUTGnZhMcb7lc-86">
          <mxGeometry relative="1" as="geometry" />
        </mxCell>
        <mxCell id="j5i6vKfsUTGnZhMcb7lc-64" value="&lt;font style=&quot;font-size: 14px;&quot;&gt;Inheritance&lt;/font&gt;" style="rounded=0;whiteSpace=wrap;html=1;fillColor=#d5e8d4;strokeColor=#82b366;" vertex="1" parent="WIyWlLk6GJQsqaUBKTNV-1">
          <mxGeometry x="1120" y="330" width="120" height="60" as="geometry" />
        </mxCell>
        <mxCell id="j5i6vKfsUTGnZhMcb7lc-70" style="edgeStyle=orthogonalEdgeStyle;rounded=0;orthogonalLoop=1;jettySize=auto;html=1;exitX=0;exitY=0.5;exitDx=0;exitDy=0;" edge="1" parent="WIyWlLk6GJQsqaUBKTNV-1" source="j5i6vKfsUTGnZhMcb7lc-66" target="j5i6vKfsUTGnZhMcb7lc-69">
          <mxGeometry relative="1" as="geometry" />
        </mxCell>
        <mxCell id="j5i6vKfsUTGnZhMcb7lc-73" value="marked as" style="edgeLabel;html=1;align=center;verticalAlign=middle;resizable=0;points=[];" vertex="1" connectable="0" parent="j5i6vKfsUTGnZhMcb7lc-70">
          <mxGeometry x="0.3627" y="1" relative="1" as="geometry">
            <mxPoint as="offset" />
          </mxGeometry>
        </mxCell>
        <mxCell id="j5i6vKfsUTGnZhMcb7lc-72" style="edgeStyle=orthogonalEdgeStyle;rounded=0;orthogonalLoop=1;jettySize=auto;html=1;exitX=1;exitY=0.5;exitDx=0;exitDy=0;entryX=0.5;entryY=0;entryDx=0;entryDy=0;" edge="1" parent="WIyWlLk6GJQsqaUBKTNV-1" source="j5i6vKfsUTGnZhMcb7lc-66" target="j5i6vKfsUTGnZhMcb7lc-71">
          <mxGeometry relative="1" as="geometry" />
        </mxCell>
        <mxCell id="j5i6vKfsUTGnZhMcb7lc-74" value="contains" style="edgeLabel;html=1;align=center;verticalAlign=middle;resizable=0;points=[];" vertex="1" connectable="0" parent="j5i6vKfsUTGnZhMcb7lc-72">
          <mxGeometry x="0.3481" relative="1" as="geometry">
            <mxPoint as="offset" />
          </mxGeometry>
        </mxCell>
        <mxCell id="j5i6vKfsUTGnZhMcb7lc-66" value="&lt;font style=&quot;font-size: 14px;&quot;&gt;Abstract Class&lt;/font&gt;" style="rhombus;whiteSpace=wrap;html=1;" vertex="1" parent="WIyWlLk6GJQsqaUBKTNV-1">
          <mxGeometry x="1120" y="440" width="120" height="80" as="geometry" />
        </mxCell>
        <mxCell id="j5i6vKfsUTGnZhMcb7lc-77" style="edgeStyle=orthogonalEdgeStyle;rounded=0;orthogonalLoop=1;jettySize=auto;html=1;exitX=0.5;exitY=1;exitDx=0;exitDy=0;entryX=0;entryY=0.5;entryDx=0;entryDy=0;" edge="1" parent="WIyWlLk6GJQsqaUBKTNV-1" source="j5i6vKfsUTGnZhMcb7lc-69" target="j5i6vKfsUTGnZhMcb7lc-76">
          <mxGeometry relative="1" as="geometry" />
        </mxCell>
        <mxCell id="j5i6vKfsUTGnZhMcb7lc-79" value="can" style="edgeLabel;html=1;align=center;verticalAlign=middle;resizable=0;points=[];" vertex="1" connectable="0" parent="j5i6vKfsUTGnZhMcb7lc-77">
          <mxGeometry x="-0.5292" y="-4" relative="1" as="geometry">
            <mxPoint as="offset" />
          </mxGeometry>
        </mxCell>
        <mxCell id="j5i6vKfsUTGnZhMcb7lc-69" value="&lt;font style=&quot;font-size: 14px;&quot;&gt;Virtual&lt;/font&gt;" style="rounded=1;whiteSpace=wrap;html=1;" vertex="1" parent="WIyWlLk6GJQsqaUBKTNV-1">
          <mxGeometry x="1000" y="560" width="120" height="60" as="geometry" />
        </mxCell>
        <mxCell id="j5i6vKfsUTGnZhMcb7lc-78" style="edgeStyle=orthogonalEdgeStyle;rounded=0;orthogonalLoop=1;jettySize=auto;html=1;exitX=0.5;exitY=1;exitDx=0;exitDy=0;entryX=1;entryY=0.5;entryDx=0;entryDy=0;" edge="1" parent="WIyWlLk6GJQsqaUBKTNV-1" source="j5i6vKfsUTGnZhMcb7lc-71" target="j5i6vKfsUTGnZhMcb7lc-76">
          <mxGeometry relative="1" as="geometry" />
        </mxCell>
        <mxCell id="j5i6vKfsUTGnZhMcb7lc-80" value="required to" style="edgeLabel;html=1;align=center;verticalAlign=middle;resizable=0;points=[];" vertex="1" connectable="0" parent="j5i6vKfsUTGnZhMcb7lc-78">
          <mxGeometry x="-0.6382" y="-3" relative="1" as="geometry">
            <mxPoint as="offset" />
          </mxGeometry>
        </mxCell>
        <mxCell id="j5i6vKfsUTGnZhMcb7lc-71" value="&lt;font style=&quot;font-size: 14px;&quot;&gt;Abstract Method&lt;/font&gt;" style="rounded=1;whiteSpace=wrap;html=1;" vertex="1" parent="WIyWlLk6GJQsqaUBKTNV-1">
          <mxGeometry x="1240" y="560" width="120" height="60" as="geometry" />
        </mxCell>
        <mxCell id="j5i6vKfsUTGnZhMcb7lc-76" value="&lt;font style=&quot;font-size: 14px;&quot;&gt;Override&lt;/font&gt;" style="ellipse;whiteSpace=wrap;html=1;" vertex="1" parent="WIyWlLk6GJQsqaUBKTNV-1">
          <mxGeometry x="1120" y="675" width="120" height="80" as="geometry" />
        </mxCell>
        <mxCell id="j5i6vKfsUTGnZhMcb7lc-81" value="&lt;font style=&quot;font-size: 14px;&quot;&gt;Coupling&lt;/font&gt;" style="ellipse;whiteSpace=wrap;html=1;" vertex="1" parent="WIyWlLk6GJQsqaUBKTNV-1">
          <mxGeometry x="1050" y="85" width="120" height="80" as="geometry" />
        </mxCell>
        <mxCell id="j5i6vKfsUTGnZhMcb7lc-90" value="" style="edgeStyle=orthogonalEdgeStyle;rounded=0;orthogonalLoop=1;jettySize=auto;html=1;" edge="1" parent="WIyWlLk6GJQsqaUBKTNV-1" source="j5i6vKfsUTGnZhMcb7lc-86" target="j5i6vKfsUTGnZhMcb7lc-89">
          <mxGeometry relative="1" as="geometry" />
        </mxCell>
        <mxCell id="j5i6vKfsUTGnZhMcb7lc-86" value="&lt;font style=&quot;font-size: 14px;&quot;&gt;Polymorphism&lt;/font&gt;" style="rounded=0;whiteSpace=wrap;html=1;fillColor=#d5e8d4;strokeColor=#82b366;" vertex="1" parent="WIyWlLk6GJQsqaUBKTNV-1">
          <mxGeometry x="1440" y="330" width="120" height="60" as="geometry" />
        </mxCell>
        <mxCell id="j5i6vKfsUTGnZhMcb7lc-92" value="" style="edgeStyle=orthogonalEdgeStyle;rounded=0;orthogonalLoop=1;jettySize=auto;html=1;" edge="1" parent="WIyWlLk6GJQsqaUBKTNV-1" source="j5i6vKfsUTGnZhMcb7lc-89" target="j5i6vKfsUTGnZhMcb7lc-91">
          <mxGeometry relative="1" as="geometry" />
        </mxCell>
        <mxCell id="j5i6vKfsUTGnZhMcb7lc-93" value="ways of" style="edgeLabel;html=1;align=center;verticalAlign=middle;resizable=0;points=[];" vertex="1" connectable="0" parent="j5i6vKfsUTGnZhMcb7lc-92">
          <mxGeometry x="0.0228" y="2" relative="1" as="geometry">
            <mxPoint as="offset" />
          </mxGeometry>
        </mxCell>
        <mxCell id="j5i6vKfsUTGnZhMcb7lc-89" value="&lt;font style=&quot;font-size: 14px;&quot;&gt;Overload&lt;/font&gt;" style="rounded=1;whiteSpace=wrap;html=1;" vertex="1" parent="WIyWlLk6GJQsqaUBKTNV-1">
          <mxGeometry x="1440" y="450" width="120" height="60" as="geometry" />
        </mxCell>
        <mxCell id="j5i6vKfsUTGnZhMcb7lc-91" value="Method Call" style="ellipse;whiteSpace=wrap;html=1;" vertex="1" parent="WIyWlLk6GJQsqaUBKTNV-1">
          <mxGeometry x="1440" y="570" width="120" height="80" as="geometry" />
        </mxCell>
      </root>
    </mxGraphModel>
  </diagram>
</mxfile>
